<mxfile host="app.diagrams.net" modified="2022-04-12T13:55:16.998Z" agent="5.0 (X11; Linux x86_64) AppleWebKit/537.36 (KHTML, like Gecko) Chrome/92.0.4515.159 Safari/537.36" etag="wf80GU3iNPHmfB3xzOUs" version="16.6.1" type="github">
  <diagram name="Page-1" id="929967ad-93f9-6ef4-fab6-5d389245f69c">
    <mxGraphModel dx="2031" dy="903" grid="1" gridSize="10" guides="1" tooltips="1" connect="1" arrows="1" fold="1" page="1" pageScale="1.5" pageWidth="1169" pageHeight="826" background="none" math="0" shadow="0">
      <root>
        <mxCell id="0" style=";html=1;" />
        <mxCell id="1" style=";html=1;" parent="0" />
        <mxCell id="1672d66443f91eb5-13" style="edgeStyle=orthogonalEdgeStyle;rounded=0;html=1;jettySize=auto;orthogonalLoop=1;endArrow=circlePlus;endFill=0;" parent="1" source="1672d66443f91eb5-4" edge="1">
          <mxGeometry relative="1" as="geometry">
            <Array as="points">
              <mxPoint x="477" y="485" />
              <mxPoint x="517" y="485" />
            </Array>
            <mxPoint x="517" y="444.9999999999998" as="targetPoint" />
          </mxGeometry>
        </mxCell>
        <mxCell id="1672d66443f91eb5-15" style="edgeStyle=orthogonalEdgeStyle;rounded=0;html=1;endArrow=circlePlus;endFill=0;jettySize=auto;orthogonalLoop=1;" parent="1" source="1672d66443f91eb5-5" edge="1">
          <mxGeometry relative="1" as="geometry">
            <Array as="points">
              <mxPoint x="717" y="485" />
              <mxPoint x="517" y="485" />
            </Array>
            <mxPoint x="517" y="444.9999999999998" as="targetPoint" />
          </mxGeometry>
        </mxCell>
        <mxCell id="1672d66443f91eb5-16" style="edgeStyle=orthogonalEdgeStyle;rounded=0;html=1;endArrow=circlePlus;endFill=0;jettySize=auto;orthogonalLoop=1;entryX=0.25;entryY=1;" parent="1" source="1672d66443f91eb5-7" edge="1">
          <mxGeometry relative="1" as="geometry">
            <Array as="points">
              <mxPoint x="627" y="635" />
              <mxPoint x="677" y="635" />
            </Array>
            <mxPoint x="677" y="604.9999999999998" as="targetPoint" />
          </mxGeometry>
        </mxCell>
        <mxCell id="1672d66443f91eb5-17" style="edgeStyle=orthogonalEdgeStyle;rounded=0;html=1;endArrow=circlePlus;endFill=0;jettySize=auto;orthogonalLoop=1;entryX=0.5;entryY=1;" parent="1" source="1672d66443f91eb5-8" edge="1">
          <mxGeometry relative="1" as="geometry">
            <Array as="points">
              <mxPoint x="817" y="635" />
              <mxPoint x="717" y="635" />
            </Array>
            <mxPoint x="717" y="604.9999999999998" as="targetPoint" />
          </mxGeometry>
        </mxCell>
        <mxCell id="cCspnFSM4ksfWUjLRAov-4" style="edgeStyle=orthogonalEdgeStyle;rounded=0;orthogonalLoop=1;jettySize=auto;html=1;entryX=0;entryY=0.5;entryDx=0;entryDy=0;fontSize=18;" edge="1" parent="1" target="cCspnFSM4ksfWUjLRAov-1">
          <mxGeometry relative="1" as="geometry">
            <mxPoint x="570" y="325" as="sourcePoint" />
          </mxGeometry>
        </mxCell>
        <mxCell id="cCspnFSM4ksfWUjLRAov-12" value="" style="group" vertex="1" connectable="0" parent="1">
          <mxGeometry x="563" y="120" width="250" height="160" as="geometry" />
        </mxCell>
        <mxCell id="cCspnFSM4ksfWUjLRAov-13" value="" style="group" vertex="1" connectable="0" parent="cCspnFSM4ksfWUjLRAov-12">
          <mxGeometry x="24" width="250.00000000000003" height="160" as="geometry" />
        </mxCell>
        <mxCell id="cCspnFSM4ksfWUjLRAov-7" value="&lt;span style=&quot;font-weight: 700&quot;&gt;&lt;br&gt;API PreProcessing&lt;br&gt;&lt;br&gt;&lt;br&gt;&lt;br&gt;&lt;br&gt;&lt;/span&gt;&lt;br&gt;" style="shape=parallelogram;perimeter=parallelogramPerimeter;whiteSpace=wrap;html=1;fixedSize=1;fontSize=18;" vertex="1" parent="cCspnFSM4ksfWUjLRAov-13">
          <mxGeometry width="250.00000000000003" height="160" as="geometry" />
        </mxCell>
        <mxCell id="cCspnFSM4ksfWUjLRAov-10" value="API Classification" style="rounded=1;whiteSpace=wrap;html=1;fontSize=18;" vertex="1" parent="cCspnFSM4ksfWUjLRAov-13">
          <mxGeometry x="26.13636363636364" y="70" width="193.1818181818182" height="30" as="geometry" />
        </mxCell>
        <mxCell id="cCspnFSM4ksfWUjLRAov-11" value="API-Regex Mapping" style="rounded=1;whiteSpace=wrap;html=1;fontSize=18;" vertex="1" parent="cCspnFSM4ksfWUjLRAov-13">
          <mxGeometry x="26.13636363636364" y="118" width="193.1818181818182" height="30" as="geometry" />
        </mxCell>
        <mxCell id="cCspnFSM4ksfWUjLRAov-14" value="" style="group" vertex="1" connectable="0" parent="1">
          <mxGeometry x="920" y="120" width="260" height="160" as="geometry" />
        </mxCell>
        <mxCell id="cCspnFSM4ksfWUjLRAov-15" value="" style="group" vertex="1" connectable="0" parent="cCspnFSM4ksfWUjLRAov-14">
          <mxGeometry x="-8.965517241379311" width="260" height="160" as="geometry" />
        </mxCell>
        <mxCell id="cCspnFSM4ksfWUjLRAov-16" value="&lt;b&gt;&lt;br&gt;Regex Conversion&lt;br&gt;&lt;br&gt;&lt;br&gt;&lt;br&gt;&lt;br&gt;&lt;br&gt;&lt;/b&gt;" style="shape=parallelogram;perimeter=parallelogramPerimeter;whiteSpace=wrap;html=1;fixedSize=1;fontSize=18;" vertex="1" parent="cCspnFSM4ksfWUjLRAov-15">
          <mxGeometry width="260" height="160" as="geometry" />
        </mxCell>
        <mxCell id="cCspnFSM4ksfWUjLRAov-17" value="API-Regex Conversion" style="rounded=1;whiteSpace=wrap;html=1;fontSize=18;" vertex="1" parent="cCspnFSM4ksfWUjLRAov-15">
          <mxGeometry x="23.91" y="69" width="201.09" height="30" as="geometry" />
        </mxCell>
        <mxCell id="cCspnFSM4ksfWUjLRAov-18" value="Regex Splicing" style="rounded=1;whiteSpace=wrap;html=1;fontSize=18;" vertex="1" parent="cCspnFSM4ksfWUjLRAov-15">
          <mxGeometry x="22.91" y="118" width="201.09" height="30" as="geometry" />
        </mxCell>
        <mxCell id="cCspnFSM4ksfWUjLRAov-20" value="" style="group" vertex="1" connectable="0" parent="1">
          <mxGeometry x="870" y="360" width="269.03" height="100" as="geometry" />
        </mxCell>
        <mxCell id="cCspnFSM4ksfWUjLRAov-21" value="&lt;b&gt;&lt;br&gt;&lt;br&gt;Reverse Generation&lt;br&gt;&lt;br&gt;&lt;br&gt;&lt;br&gt;&lt;br&gt;&lt;/b&gt;" style="shape=parallelogram;perimeter=parallelogramPerimeter;whiteSpace=wrap;html=1;fixedSize=1;fontSize=18;" vertex="1" parent="cCspnFSM4ksfWUjLRAov-20">
          <mxGeometry width="269.03" height="100" as="geometry" />
        </mxCell>
        <mxCell id="cCspnFSM4ksfWUjLRAov-23" value="RgexGen" style="rounded=1;whiteSpace=wrap;html=1;fontSize=18;" vertex="1" parent="cCspnFSM4ksfWUjLRAov-20">
          <mxGeometry x="44.894381249999995" y="56.45454545454545" width="179.2412375" height="29.545454545454543" as="geometry" />
        </mxCell>
        <mxCell id="cCspnFSM4ksfWUjLRAov-27" value="" style="group" vertex="1" connectable="0" parent="1">
          <mxGeometry x="563" y="360" width="260" height="100" as="geometry" />
        </mxCell>
        <mxCell id="cCspnFSM4ksfWUjLRAov-5" value="&lt;span style=&quot;font-weight: 700&quot;&gt;Path Simplification&lt;br&gt;&lt;br&gt;&lt;/span&gt;&lt;span style=&quot;color: rgba(0 , 0 , 0 , 0) ; font-family: monospace ; font-size: 0px&quot;&gt;%3CmxGraphModel%3E%3Croot%3E%3CmxCell%20id%3D%220%22%2F%3E%3CmxCell%20id%3D%221%22%20parent%3D%220%22%2F%3E%3CmxCell%20id%3D%222%22%20value%3D%22RgexGen%22%20style%3D%22rounded%3D1%3BwhiteSpace%3Dwrap%3Bhtml%3D1%3BfontSize%3D18%3B%22%20vertex%3D%221%22%20parent%3D%221%22%3E%3CmxGeometry%20x%3D%221040.05%22%20y%3D%22720%22%20width%3D%22159.9%22%20height%3D%2232.5%22%20as%3D%22geometry%22%2F%3E%3C%2FmxCell%3E%3C%2Froot%3E%3C%2FmxGraphModel%3E&lt;/span&gt;&lt;span style=&quot;font-weight: 700&quot;&gt;&lt;br&gt;&lt;/span&gt;" style="shape=parallelogram;perimeter=parallelogramPerimeter;whiteSpace=wrap;html=1;fixedSize=1;fontSize=18;" vertex="1" parent="cCspnFSM4ksfWUjLRAov-27">
          <mxGeometry width="260" height="100" as="geometry" />
        </mxCell>
        <mxCell id="cCspnFSM4ksfWUjLRAov-24" value="simplification algorithm" style="rounded=1;whiteSpace=wrap;html=1;fontSize=18;" vertex="1" parent="cCspnFSM4ksfWUjLRAov-27">
          <mxGeometry x="24" y="54" width="200" height="32.5" as="geometry" />
        </mxCell>
        <mxCell id="cCspnFSM4ksfWUjLRAov-28" style="edgeStyle=orthogonalEdgeStyle;rounded=0;orthogonalLoop=1;jettySize=auto;html=1;exitX=0.576;exitY=-0.036;exitDx=0;exitDy=0;fontSize=18;exitPerimeter=0;" edge="1" parent="1" source="cCspnFSM4ksfWUjLRAov-5">
          <mxGeometry relative="1" as="geometry">
            <mxPoint x="713" y="280" as="targetPoint" />
          </mxGeometry>
        </mxCell>
        <mxCell id="cCspnFSM4ksfWUjLRAov-29" style="edgeStyle=orthogonalEdgeStyle;rounded=0;orthogonalLoop=1;jettySize=auto;html=1;exitX=1;exitY=0.5;exitDx=0;exitDy=0;entryX=0;entryY=0.5;entryDx=0;entryDy=0;fontSize=18;" edge="1" parent="1" source="cCspnFSM4ksfWUjLRAov-7" target="cCspnFSM4ksfWUjLRAov-16">
          <mxGeometry relative="1" as="geometry" />
        </mxCell>
        <mxCell id="cCspnFSM4ksfWUjLRAov-30" style="edgeStyle=orthogonalEdgeStyle;rounded=0;orthogonalLoop=1;jettySize=auto;html=1;entryX=0.5;entryY=0;entryDx=0;entryDy=0;fontSize=18;" edge="1" parent="1" target="cCspnFSM4ksfWUjLRAov-21">
          <mxGeometry relative="1" as="geometry">
            <mxPoint x="1005" y="280" as="sourcePoint" />
          </mxGeometry>
        </mxCell>
        <mxCell id="cCspnFSM4ksfWUjLRAov-33" value="" style="shape=image;verticalLabelPosition=bottom;labelBackgroundColor=default;verticalAlign=top;aspect=fixed;imageAspect=0;image=data:image/png,iVBORw0KGgoAAAANSUhEUgAAAMgAAADICAYAAACtWK6eAAAAAXNSR0IArs4c6QAAFzNJREFUeF7tnQ2wJUV1x0/P209YQD4C8qFZygfsu3Pm7sLytYSvBQREROTDUAlJQESMIRHLKFE0QIIa1IoEYwKJBjShkN2YGIhiDMgiIkTZ7O7rM3d3yUo2QYkYIDErBU/em041zCuW5fZ8nrkzd+6Zqi0pX/fpc/59frenZ3q6FcglCogCTgWUaCMKiAJuBQQQyQ5RIEEBAUTSQxQQQCQHRIFiCsgIUkw3qTUiCgggI9LREmYxBQSQYrpJrRFRQAAZkY6WMIspIIAU001qjYgCAsiIdLSEWUwBAaSYblJrRBSoBZDx8fFdFyxYcDQA7BP/WzQielcV5jMA8Jgx5rFnn332sa1btz5fVUOjZndggExMTOw7NjZ2GQCsAIBTR03oAcf7VQD40l577XXXmjVrpgfcdquaGwggiHiNUupSY8x+rVKv+cH8AAA+TUQ3Nd/VZnpYOSCI+CAAHNPM8EfGq5uiKPpAr9f72chEzBRopYAg4jYAkPkFU2eVNPNdY8ylYRj2StoZqeqVAYKIdwLAW0ZKzYYHq5QKoyh6u0CSvaMqAQQRrwOAq7K7ISUHpYBAkk9pdkCCIFhujHkknxtSepAKCCTZ1WYHxPf9m5VS78rugpSsQwGBJJvqrIAgYhcANmRrWkrVrYBAkt4D3IB8CgB+N71ZKdEUBQSS5J7gBuTH8dKRpvS/+JFBAQuJMeZ8ItqYofhIFWEDJAiC3Y0xdk2QXEOogIXE87xzNmzY8OgQul+Zy2yAIOIEAMhLqMq6qnrD8UjyViKyS1TkAgBOQE4EgPsKqnptXM9s55Prvws2AVlsb1+maDtV1Lu6CqP9bFpIxsbGzly/fv3WQbXZ5HYaAQgRsfnRZLGL+IaIZX54ijQJ8UjyJiJ6vJCBFlViS8wyHSmAuDOqjK5l8tRCMmfOnFPXrVv3RBk7w15XAGl4D9YFiJUlHklOJqInGy5TZe4JIJVJy2O4TkBmIZmamjrx0UcffYonouGyIoA0vL/qBmQWEgA4Tmv9Pw2Xi909AYRdUl6DJQBZAwDHA4DH4ZG93XruueeO2bJly/9x2BsWGwJIw3uqDCCe530uiqIvA8AYR5gWEqXUUZOTk89y2BsGGwJIw3upDCBEtNL3/XOVUhaSORyhWki2bdt2+KjsnCKAcGRNhTbKAmJdQ8RzAOB2AJjH4aqFZN68eYeuXbv2BQ57TbYhgDS5d15K7qIvCtfYEWQ2vCAIzjbG2JFkPkfIFhKttf28IeKw11QbAkhTeyb2iwsQay4IgrfGkCzgCDuGBDlsNdWGANLUnqkAEGuy0+mc5Xmevd3aiSP0tkMigHBkSYU2OEeQWTcR8UwAsLdbO3O43mZIBBCODKnQRhWAxBP3N8eQsOxb1lZIBJAKk5vDdFWAxHOSM4wx9nZrVw5f2wiJAMKRGRXaqBIQ67bv+6fH70l24wijbZAIIBxZUaGNqgGJITkthuQ1HKG0CRIBhCMjKrQxCEDiOckb4znJHhzhtAUSAYQjGyq0MShA4jnJKfF7kj05QmoDJAIIRyZUaGOQgMS3Wycppe4AgL04whp2SAQQjiyo0MagAYkhWRlD8gscoQ0zJAIIRwZUaKMOQOLbrROMMXYksedIlr6GFRIBpHTXV2ugLkBiSI6PIXktR5TDCIkAwtHzFdqoExAbVqfTOdbzvFUAsC9HmMMGiQDC0esV2qgbkHhO8kvxnGR/jlCHCRIBhKPHK7TRBEDi260Vxhg7khzAFK4mIvs9SaMvAaTR3cP3wRRHmN1u9+goiiwkr+OwBwDriehQJluVmBFAKpGVz2hTRpDZiDqdzpHxnOQXmaJcS0SHM9liNyOAsEvKa7BpgMRzkiMAYJVSajFTtN8joqOYbLGaEUBY5eQ31kRA4jmJPax1NQAcyBT1Q0R0DJMtNjMCCJuU1RhqKiA22m63e1g8J3kDU/TfIaLjmGyxmBFAWGSszkiTAbFRdzqdZZ7n2ZFknEmF+4nI7uTSiEsAaUQ3uJ1oOiDxnGSpUspCchCTnB8mok8w2SplRgApJV/1lYcBkHhOEsRzkkM4VImi6OJer3crh60yNgSQMuoNoO6wABLPSTCKIjuSLGGSplP3ybsCCFNPVmWmDCAAcH9Jv9LObJz9+47/e76dnpRs21b/CBF9jMFOYRMCSGHpBlNxlE8PNsasC8PwsMEo3b8VAaRO9TO0Pernzxtj/DAMazteXADJkKR1F0FEe/wZy3fidceSt32l1IVa69vy1uMqL4BwKVmhHd/3b1FKXVRhE002fS0RXVOXgwJIXcrnaBcRLwGAz+eo0qaitxHRhXUFJIDUpXyOdrvd7t5RFD3MuO4pR+u1F33FOSeD9kYAGbTiBdtDxPcCwA0Fqw9zNQGEiNhAHeZMSPMdEe8DgMasU0rzl+nvAogAki2VOp3O6z3P+49spVtTSgARQLInc7zLyAPZawx9SQFEAMmXxBMTE/uOjY3Zp1pn5Ks5lKUFEAEkf+IuX7587tTU1FVKqUuNMfvltzA0NQQQLkAQsbYXSnnTjevlVzyaXKaUOt0Y08jvuvNqs0N5AYQZkKtLdsggqlfS6Yhot+Oxe03ZrULtnrrzBhFMjjaK9E0lWmX1me3xaoll2SCAZO2u4S1XIj8EEAFkeBM/q+cCCKJ9gWVfZOW+BJDckg1dBQFEAMmTtLXeNuRxlKusACKA5MklASS7WrVqJZP07B3FWbLWTucMJKstGUFkBMmaK7acAJJdrVq1khEke0dxlqy10zkDyWpLRhAZQbLmiowgeZSqebSVESRfZ3GVlhEku5K1aiWAvNRRa7L3F09JIlrJY2k4rMS3WCc4vE3MQ651a0WUEkAA2Ja6FOkAqdNsBQQQAaTZGVqzdwKIAFJzCja7eQFEAGl2htbsnQAigNScgs1uXgARQJqdoTV7J4C0GBBEfDcA/LIrx5r4qBkRfw0A3uHyOYqiy3u9XjgobgSQlgISH5tg99DapV8yKaXO1lr/w6ASLU87iLgJAFxHuX2NiM7MY69MWQGkpYD4vv9ZpdTljuR4mIhWlEmcKusiogXgroQ2ziWiv6vSh1nbAkgLAUlbGBhF0dG9Xu9fBpFgRdsIguAeY8zJjvqb58+fH6xdu/aFovaz1hNA2gnItwDAtZTlr4no17MmSF3l0naQNMZ8NAzD66r2TwBpGSApu8Bvi6IIe73ef1adWBz2EfGvAOBih63IGHNYGIYbONpy2RBAWgTIxMTEQWNjY98BgL0dE/OrtdZ/UGVCcdrudDq+53kPJTxouF1r/Sucbe5oSwBpESCI+OcAYB/tvupSSq2bmZmxc4+fV5lQ3Lbj3TKdG84ZY04Kw7DQbjpZfBVAWgIIIr4BANYDwKJ+HW+MuTIMw09mSYomlYlHxUkAWODw6yYi+s2qfBZA2gOI/ZV17U38vFLK11o/VlUiVWkXEb+Q8PLwmZmZGdy4ceN/VeGDANICQDqdziLP8+zoYUeRfletB2GWTdxut3tyFEX3uOwYY94XhmElx9MJIC0AJF5SYucffS+l1Nu01l8tm6h11kfEfwaAUxw+PEREx1ThnwDSDkAeBABXgkwS0dIqkmeQNoMguNgYYx/7un4EztBa383tkwDykqID+yade4EgIr4NAJzLLpRSmR7tBkHwGWPMsqQEK+I7ItoJ9NvL2h0fH5+/cOHCSWPMwf1sGWNuDcPQ9c6kMDcCSGHpClVk36EDEe1RbJck3J/7YRj20rwdHx/fdeHChWuMMYcm/Epfp7X+aJqt2b/HCyZ/BAALE2yeoLX+dhabKY98f0REB2Sxk6eMAJJHrfJl2QEJgoCMMb7DtQeJ6Nisbvu+/xal1J1J5eM38ZmWm6c8fQKl1O9rrf8wq39pixiNMceGYWhvN9kuAYRNykyGWAHxfX9cKfVvCS1/iog+mMmzuBAifhoA3p/wi/8NrfWb0mwi4hsB4JsJI9u9YRi6Jt19q8XHzT2R4Nvvaa2vT/Mtz98FkDxqlS/LCkin07nI87xbEhIm9zcf3W535yiK7HIV53zEGHNRGIZfTJIDEe0aKXscXN+r6K89ImoAQIfZu4jorPLd9LIFAYRTzXRbrIAg4l8CwDtdzc6dO3fvdevW/Xe6W68sEQTBGcaYryXUe+r5558/YMuWLVP9yiDihwDg4wn1ryKipL87q6YsYHyaiPbKG29SeQGEU810W6yApMw/vk9ER6a71L9EEATXG2Oct2fGmD8Nw/C3d6zd7XYPjKLI+cZeKfWA1vr4on75vv8epdTnEkbNw7XWa4va37GeAMKlZDY7bIAsWbJkzzlz5jyVcAvzx2EYOucSae4uXrx4waJFiyjh7Tz0u01CxK8AwDku+57nrZicnHw4rX3X333fP0Ip9b2EuFnfqgsgRXuqWD02QBDxVAD4p4Rf0tzzjx1t+b5/mlLqGwmhvuLT3SAIzjfGrErwiWUSjYgmAZC+I1ux7gIQQIoqV6weGyBpE3TP85ZPTk7+azE3X64Vv0C8IsHOFUT0J/bviGg3iXi9o+x6InK+Y8njJyI+DQB7OOp8hYjOy2MvqawAwqVkNjtsgKRNhGdmZhZv3LjRJmypa/ny5XOnpqZ+6PoICwCmPc/b3xjz/pQ5y5FhGH6/lDNxZUS0j7bHHbZY12UJIBw9lt0GGyApu5ZAFEW79Hq9n2V3zV0yCIJTjDF2saDrskt17DHgfS+lVK438Gk+B0HwsDHmqH7ljDFbwzA8MM1G1r8LIC8pda1DsNl73e11sv9fYd24zrpAxL8FgHMdfk8RkesDo6y58YpyaUtaEoz+gIhcv/aFfPF9/+tKKdfLyp8T0fxChvtUKtzRO9pK22omyWEiYvEj7fNMlw9c7XN1ShY7iPhdAOi7t5VS6gmt9f5Z7OQo4yHiNgDYKUcdO5Id1ev1nE+d8tiaLYuIfwMAv+qqOz09vdemTZvsPKX0xZKY1gsBpHRf5DLg+/6/K6UWOyppInK+xc7V0HaFgyA42xjz91nrK6Vu0Fq/L2v5rOUQ8UYAeNU7mNn6Sqmu1tq+cS99CSBD+j0IItq32PMcGcA21+lzp3BH2vL1uM5PiGif0hnax0DanYJS6hittd0NpfQlgAwvIPYl4Z6ODKjqI6kxRJzOmnVRFB3f6/UeyFo+a7m0EWR6evrATZs2bc1qL6mcADK8gNidPgJH51bybYTv+6uUUufnSLwfEtHrcpTPVDQIgtuMMc79sKIoms+1vZEAMryA2Lfo9m16v+s5Iso1mU7LzLS35An1cy+5T/MFEe3b/dMc5VgXLAogQwqI7/u3KKUuciXTLrvsstNDDz30XFqyZfm7/dpwwYIFP81S1lHmCCJ6pET9V1RFRPvC8XCHPdYHFALIkAKCiHa5uF1W3vcaGxs7YMOGDfZz19JXhlsruxn2lxIa2kREE6UdiQ0gol0t7HoZ+E0ico0uuV0QQIYUkCAILjfGfDahx5cSkZ2nlLoQ0Z5Q9eUEIy8eaIOIVwGAc7f1vJ/XJjmNiHY027VfGe7NGwSQIQXE9/1zlVL2bbrrWklEpXZrOeSQQ/abO3du4ijked6SycnJzdYJREx6cMDy0nD58uW7TU1N/W9C3J8gog+X+lXYrrIAMqSAdDqdZZ7nrXMlAscvdtqt1Y5bCqV9hw4ApT7isrGmbSxhjDkvDEP7TQrLJYAMKSDxL/YzALC7IxPuISK7cUKhCxHtVkJ2SyHXtZGIOjv+McNOJh/SWv9RIadeGqXsBtwfSKj/WiJ6sqj9HesJIMMNyD8CwJsdyTAVRdGuRd4HLFmy5OA5c+a8eNuUMEL13clw2bJlr5menrbL43dOqFv4TXfSSl6lVKi1dm3oUIgZAWSIAfF9/0qllPPXuOjZGb7vr1ZKOT86Ukp9UWvtfMQcBMFlxpibEjLyPiI6KW/GIqJduvLjhHpfICLnJhZ527PlBZAhBiQIghXGGLuq13V9hIg+licxEPF3AODFLwRdI9P09PT+aatlEdEeauP8RgQAivhmv3VPml+8k4jsUQlslwAyxIDYLEBEu5Havv0ywhhzdxiGZ2TNlk6nc6jneYmf6RpjLg/D0LmryGxb3W73sCiKEncXiaLouF6vZ/fgynRl2NRuQmttz1hnuwSQIQckCILV9smNIyN+Onfu3IOy7o3l+/7dSqnTXdmVd8uetK2DlFLf0lq7jnp+lRuIaL8rOaKff1XMP+QWK1Z6GD+Ymk2StLNBAOA9ROQ8O2Q7O/bdQeLtmDEm93flKRs52P15M+0+7/v+6UqppOMNPk5E9mUl6yUjyJCPIGmnSyml7tVaJ+6B2+l0jvM8L3GHdWNMoX22fN8/Tym1OilrlVInaq3vTyqT8smvPZh0GRFtZKVDJukvyTnMI0g8D7FnEyadBMu+6zl3IibZW7p06f4zMzN2R/ndHOXYn17NtiMjSDsASTzhtqpPXwcFSYYna6WX1TjnXVxByjfpXEoWs5N0RjoAPP7CCy/4mzdvtpsuDN3l+/63lVLHORx/cbFkVUHJCNKCESS+zbJnFDoPj1FKvUNr7TwqoaoEK2vX9/2V9mlXgp0LiMh+J1/JJYC0BJAYEntWoT2zsN/1dSJyLUupJLk4jKZMzh8hor6PfTnatjYEkBYB4vv+SfapVUJyXEJEzpNiuZKKy06GR7uVjh4CSNyTw/4Ua/uETFntupmIlnAlcNV2ENEe4eZakXwbEV1YtQ8ygrRoBLHJEq+mtd9/2ydbr7qUUp/UWl9ZdWKVte/7/m8opW512eHcHC7JVwGkZYDYzvZ9/wKl1O2ujvc8b5/JycmflE3iKuv7vr9ZKdX3TPQiCx2L+iqAtBCQDBP2VURkvzVv5IWI7wWAG/o5Z3dv73Q646tXr54ZhPMCSEsBWbp06cEzMzPOj56iKDq01+utH0SS5W0DEe12Ra7d6SufmG/vb6sAydsRbS8f72HrDJPrKAZOHZvmswDC2btiq3UKCCCt61IJiFMBAYRTTbHVOgUEkNZ1qQTEqYAAwqmm2GqdAgJI67pUAuJUQADhVFNstU4BAaR1XSoBcSoggHCqKbZap4AA0roulYA4FRBAONUUW61TQABpXZc2M6B4U4+kvXpdjhsiurauqASQupQfsXZL7HqzhohW1iWXAFKX8iPWrgCCaIdPu+V97qtN34TnDn5EKgggAsiIpHqxMAUQAaRY5oxILQFEABmRVC8WpgAigBTLnBGpJYAIICOS6sXCFEAEkGKZMyK1BBABZERSvViYAkgJQACgtqUExbpbahVUwHkKVoK91rxJnwCAXkHhpJoo4FLgDiK6oC552JaaBEGwuzHmmboCkXZbq8CNRGS3Iq3lYgPEeo+IjwPAAbVEIo22UgFjzG+FYfhndQXHCojv+x9USl1fVzDSbvsUMMYcFIbhlroiYwWk2+0eEkXRprqCkXZbp8DDRLSizqhYAbGB+L5/s1LqXXUGJW23QwGl1GVa67+oMxp2QIIgWG6MsSccySUKlFFgLREdXsYAR112QKxTQRB8xhhzBYeDYmM0FYii6OJer+c8gm1QqlQCSPxEa509Mm9QgUg77VHAGHNrGIYXNyGiygCJIXkaAPZoQqDiw9AocBcRndUUbysFJJ60r1JKnd+UgMWP5iqglHq31vrmJnlYOSDxSHKNUupSY8x+TQpefGmGAkqpe2dmZm7s9Xp3NsOjl70YCCC2uYmJiX3HxsYuM8acpJQ6rmlCiD8DV+BZC0YURXeFYfj5gbeescGBAbK9P/Fh90cCwD7xv0UZ/ZViw62AXav3pP1HRGuGIZRaABkGYcRHUcAqIIBIHogCCQoIIJIeooAAIjkgChRTQEaQYrpJrRFRQAAZkY6WMIspIIAU001qjYgCAsiIdLSEWUwBAaSYblJrRBQQQEakoyXMYgoIIMV0k1ojooAAMiIdLWEWU+D/ARQDNm6L6XODAAAAAElFTkSuQmCC;" vertex="1" parent="1">
          <mxGeometry x="1110" y="520" width="70" height="70" as="geometry" />
        </mxCell>
        <mxCell id="cCspnFSM4ksfWUjLRAov-36" value="" style="shape=image;verticalLabelPosition=bottom;labelBackgroundColor=default;verticalAlign=top;aspect=fixed;imageAspect=0;image=data:image/png,iVBORw0KGgoAAAANSUhEUgAAAMgAAADICAYAAACtWK6eAAAAAXNSR0IArs4c6QAAB7lJREFUeF7t3eF1G0cMRWGxHxZhN5F2nCrShIuIexD7SY6OdRIpFsVZ5HE5s/jyNwMscR9uhqYj6vTkHwQQuErghA0CCFwnQBDbgcAnBAhiPRAgiB1AoEbADVLjpqoJAYI0CdqYNQIEqXFT1YQAQZoEbcwaAYLUuKlqQoAgTYI2Zo0AQWrcVDUhQJAmQRuzRoAgNW6qmhAgSJOgjVkjQJAaN1VNCBCkSdDGrBEgSI2bqiYECNIkaGPWCBCkxk1VEwIEaRK0MWsECFLjpqoJAYI0CdqYNQIEqXFT1YQAQZoEbcwaAYLUuKlqQoAgTYI2Zo0AQWrcVDUhQJAmQRuzRoAgNW6qmhAgSJOgjVkjQJAaN1VNCBCkSdDGrBEgSI2bqiYECNIkaGPWCBCkxk1VEwIEaRK0MWsECFLjpqoJAYI0CdqYNQIEqXFT1YQAQZoEbcwagSUEOZ/PX2rjqVqZwOVy+fHo17+SIH8+Gpbn70rgx+Vy+brrEz94GEEenYDnXyNAkNHdeH2L5QYZBXaMcwQZzZEgo6QOdY4go3ESZJTUoc4RZDROgoySOtQ5gozGSZBRUoc6R5DROAkySupQ5wgyGueIIJfLZYmPrEdnPvq58/n88qnkZ38BTJDRJSDIKKl1zhEkmBVBgjAnaUWQYBAECcKcpBVBgkEQJAhzklYECQZBkCDMSVoRJBgEQYIwJ2lFkGAQBAnCnKQVQYJBECQIc5JWBAkGQZAgzElaESQYBEGCMCdpRZBgEAQJwpykFUGCQRAkCHOSVgQJBkGQIMxJWhEkGARBgjAnaUWQYBAECcKcpBVBgkEQJAhzklYECQZBkCDMSVoRJBgEQYIwJ2lFkGAQBAnCnKQVQYJBECQIc5JWBAkGQZAgzElaESQYBEGCMCdpRZBgEAQJwpykFUGCQRAkCHOSVgQJBjGLIOfz+a/gWDO3+nrv3+5EkGD8BAnCHGtFkFdOS3xdJ0HGtjp4iiAE2b5O3mJtZ3atwlusHMsnN0gQ5lgrN4gbZGxT3p5yg2xn5gbJMbvayQ2yA+T3j3CDuEG2L50bZDszN0iO2Qo3yGe/8GUHEvs9wt+D/GTtY979ds6T3hDwKVZwHWb5M0hwpPatCBJcAYIEYU7SiiDBIAgShDlJK4IEgyBIEOYkrQgSDIIgQZiTtCJIMAiCBGFO0oogwSAIEoQ5SSuCBIMgSBDmJK0IEgyCIEGYk7QiSDAIggRhTtKKIMEgCBKEOUkrggSDIEgQ5iStCBIMgiBBmJO0IkgwCIIEYU7SiiDBIAgShDlJK4IEg5hFED9RmAuVIDmWvtUkyHKwlZ9JfwXlJwoHN+blmBtkA6wbR90gOZZukCDLwVZuEDfI4Kq8OeYG2c7sWoUbJMfSDRJkOdjKDeIGGVwVN8h2UAMVbpABSKNHfMw7Sip2zg3iBtm+TK+ibi9csMIXx/0Mzce8Cy7vEV6yt1jBFGd5ixUcqX0rggRXgCBBmJO0IkgwCIIEYU7SiiDBIAgShDlJK4IEgyBIEOYkrQgSDIIgQZiTtCJIMAiCBGFO0oogwSAIEoQ5SSuCBIMgSBDmJK0IEgyCIEGYk7QiSDAIggRhTtKKIMEgCBKEOUkrggSDIEgQ5gStzufz709PT99uvJQfl8vl66Nfrv+b99EJNHv+oBwvVAgyuhtukFFSc5/bIAdBtkQ5iyCLfGnDFP/l/W++G+V4Op1Ovz0/P3/fsif3OOst1gaqBNkA683RVeV4GYEgGzInyAZYr0dXloMgG/MmyDZgq8tBkG15r/LVo1P8GeQIchCEIBsJjB0/ihwEGcv7n1PeYt0GdiQ5CHI773cnCPI5sKPJQZDtgnzZWPKQ4/f+0rePhjqiHAR5yPoe76FHlYMgx9vV3Sc6shwE2X2djvXAo8tBkGPt667TdJCDILuu1HEe1kUOghxnZ3ebpJMcBNltrY7xoG5yEOQYe7vLFB3lIMguq7X+Q7rKQZD1d/fuE3SWgyB3X6+1H9BdDoKsvb93ffXk+InXj9zedc3WbE6Of3MjyJo7fLdXTY73aAlyt1VbrzE5fs2MIOvt8V1eMTk+xkqQu6zbWk3JcT0vgqy1y/FXS47PkRIkvnLrNCTH7awIcpvRIU+QYyxWgoxxOtQpcozHSZBxVoc4SY5tMRJkG6+lT5Nje3wE2c5syQpy1GI7jCAvv7KrhqBN1fCX3s3yy2tmSOZIgszAc/nXQI73ERJk+ZXODUCOX1kSJLdfS3cix8fxEWTptc68eHJc50iQzI4t24Ucn0dHkGVX+/+/cHLcZkiQ24wOeYIcY7GuJMi3sZGcukXgdDr98fz8/P3WOf9+kS9tEBQCjyKwxA3yKDieiwBB7AACnxAgiPVAgCB2AIEaATdIjZuqJgQI0iRoY9YIEKTGTVUTAgRpErQxawQIUuOmqgkBgjQJ2pg1AgSpcVPVhABBmgRtzBoBgtS4qWpCgCBNgjZmjQBBatxUNSFAkCZBG7NGgCA1bqqaECBIk6CNWSNAkBo3VU0IEKRJ0MasESBIjZuqJgQI0iRoY9YIEKTGTVUTAgRpErQxawQIUuOmqgkBgjQJ2pg1AgSpcVPVhABBmgRtzBoBgtS4qWpCgCBNgjZmjQBBatxUNSFAkCZBG7NG4G+IJ6sFwE/lcgAAAABJRU5ErkJggg==;" vertex="1" parent="1">
          <mxGeometry x="990" y="600" width="80" height="80" as="geometry" />
        </mxCell>
        <mxCell id="cCspnFSM4ksfWUjLRAov-38" value="" style="shape=image;verticalLabelPosition=bottom;labelBackgroundColor=default;verticalAlign=top;aspect=fixed;imageAspect=0;image=data:image/png,iVBORw0KGgoAAAANSUhEUgAAAMgAAADICAYAAACtWK6eAAAAAXNSR0IArs4c6QAAB7lJREFUeF7t3eF1G0cMRWGxHxZhN5F2nCrShIuIexD7SY6OdRIpFsVZ5HE5s/jyNwMscR9uhqYj6vTkHwQQuErghA0CCFwnQBDbgcAnBAhiPRAgiB1AoEbADVLjpqoJAYI0CdqYNQIEqXFT1YQAQZoEbcwaAYLUuKlqQoAgTYI2Zo0AQWrcVDUhQJAmQRuzRoAgNW6qmhAgSJOgjVkjQJAaN1VNCBCkSdDGrBEgSI2bqiYECNIkaGPWCBCkxk1VEwIEaRK0MWsECFLjpqoJAYI0CdqYNQIEqXFT1YQAQZoEbcwaAYLUuKlqQoAgTYI2Zo0AQWrcVDUhQJAmQRuzRoAgNW6qmhAgSJOgjVkjQJAaN1VNCBCkSdDGrBEgSI2bqiYECNIkaGPWCBCkxk1VEwIEaRK0MWsECFLjpqoJAYI0CdqYNQIEqXFT1YQAQZoEbcwagSUEOZ/PX2rjqVqZwOVy+fHo17+SIH8+Gpbn70rgx+Vy+brrEz94GEEenYDnXyNAkNHdeH2L5QYZBXaMcwQZzZEgo6QOdY4go3ESZJTUoc4RZDROgoySOtQ5gozGSZBRUoc6R5DROAkySupQ5wgyGueIIJfLZYmPrEdnPvq58/n88qnkZ38BTJDRJSDIKKl1zhEkmBVBgjAnaUWQYBAECcKcpBVBgkEQJAhzklYECQZBkCDMSVoRJBgEQYIwJ2lFkGAQBAnCnKQVQYJBECQIc5JWBAkGQZAgzElaESQYBEGCMCdpRZBgEAQJwpykFUGCQRAkCHOSVgQJBkGQIMxJWhEkGARBgjAnaUWQYBAECcKcpBVBgkEQJAhzklYECQZBkCDMSVoRJBgEQYIwJ2lFkGAQBAnCnKQVQYJBECQIc5JWBAkGQZAgzElaESQYBEGCMCdpRZBgEAQJwpykFUGCQRAkCHOSVgQJBjGLIOfz+a/gWDO3+nrv3+5EkGD8BAnCHGtFkFdOS3xdJ0HGtjp4iiAE2b5O3mJtZ3atwlusHMsnN0gQ5lgrN4gbZGxT3p5yg2xn5gbJMbvayQ2yA+T3j3CDuEG2L50bZDszN0iO2Qo3yGe/8GUHEvs9wt+D/GTtY979ds6T3hDwKVZwHWb5M0hwpPatCBJcAYIEYU7SiiDBIAgShDlJK4IEgyBIEOYkrQgSDIIgQZiTtCJIMAiCBGFO0oogwSAIEoQ5SSuCBIMgSBDmJK0IEgyCIEGYk7QiSDAIggRhTtKKIMEgCBKEOUkrggSDIEgQ5iStCBIMgiBBmJO0IkgwCIIEYU7SiiDBIAgShDlJK4IEg5hFED9RmAuVIDmWvtUkyHKwlZ9JfwXlJwoHN+blmBtkA6wbR90gOZZukCDLwVZuEDfI4Kq8OeYG2c7sWoUbJMfSDRJkOdjKDeIGGVwVN8h2UAMVbpABSKNHfMw7Sip2zg3iBtm+TK+ibi9csMIXx/0Mzce8Cy7vEV6yt1jBFGd5ixUcqX0rggRXgCBBmJO0IkgwCIIEYU7SiiDBIAgShDlJK4IEgyBIEOYkrQgSDIIgQZiTtCJIMAiCBGFO0oogwSAIEoQ5SSuCBIMgSBDmJK0IEgyCIEGYk7QiSDAIggRhTtKKIMEgCBKEOUkrggSDIEgQ5gStzufz709PT99uvJQfl8vl66Nfrv+b99EJNHv+oBwvVAgyuhtukFFSc5/bIAdBtkQ5iyCLfGnDFP/l/W++G+V4Op1Ovz0/P3/fsif3OOst1gaqBNkA683RVeV4GYEgGzInyAZYr0dXloMgG/MmyDZgq8tBkG15r/LVo1P8GeQIchCEIBsJjB0/ihwEGcv7n1PeYt0GdiQ5CHI773cnCPI5sKPJQZDtgnzZWPKQ4/f+0rePhjqiHAR5yPoe76FHlYMgx9vV3Sc6shwE2X2djvXAo8tBkGPt667TdJCDILuu1HEe1kUOghxnZ3ebpJMcBNltrY7xoG5yEOQYe7vLFB3lIMguq7X+Q7rKQZD1d/fuE3SWgyB3X6+1H9BdDoKsvb93ffXk+InXj9zedc3WbE6Of3MjyJo7fLdXTY73aAlyt1VbrzE5fs2MIOvt8V1eMTk+xkqQu6zbWk3JcT0vgqy1y/FXS47PkRIkvnLrNCTH7awIcpvRIU+QYyxWgoxxOtQpcozHSZBxVoc4SY5tMRJkG6+lT5Nje3wE2c5syQpy1GI7jCAvv7KrhqBN1fCX3s3yy2tmSOZIgszAc/nXQI73ERJk+ZXODUCOX1kSJLdfS3cix8fxEWTptc68eHJc50iQzI4t24Ucn0dHkGVX+/+/cHLcZkiQ24wOeYIcY7GuJMi3sZGcukXgdDr98fz8/P3WOf9+kS9tEBQCjyKwxA3yKDieiwBB7AACnxAgiPVAgCB2AIEaATdIjZuqJgQI0iRoY9YIEKTGTVUTAgRpErQxawQIUuOmqgkBgjQJ2pg1AgSpcVPVhABBmgRtzBoBgtS4qWpCgCBNgjZmjQBBatxUNSFAkCZBG7NGgCA1bqqaECBIk6CNWSNAkBo3VU0IEKRJ0MasESBIjZuqJgQI0iRoY9YIEKTGTVUTAgRpErQxawQIUuOmqgkBgjQJ2pg1AgSpcVPVhABBmgRtzBoBgtS4qWpCgCBNgjZmjQBBatxUNSFAkCZBG7NG4G+IJ6sFwE/lcgAAAABJRU5ErkJggg==;" vertex="1" parent="1">
          <mxGeometry x="1080" y="590" width="80" height="80" as="geometry" />
        </mxCell>
        <mxCell id="cCspnFSM4ksfWUjLRAov-43" value="" style="rounded=0;whiteSpace=wrap;html=1;fontSize=18;fillColor=none;" vertex="1" parent="1">
          <mxGeometry x="550" y="60" width="640" height="420" as="geometry" />
        </mxCell>
      </root>
    </mxGraphModel>
  </diagram>
</mxfile>
